<svg width="40" height="40" viewBox="0 0 40 40" fill="none" xmlns="http://www.w3.org/2000/svg">
<g clip-path="url(#clip0_533_1021)">
<path d="M8.89235 0V1.3998C8.89033 2.75454 9.07691 4.10324 9.44736 5.40656L10.2595 8.26296L16.4601 2.07448L15.4086 1.54704C13.3862 0.532151 11.1551 0.00268933 8.89235 0Z" fill="#F7A116"/>
<path d="M27.1539 1.56244L26.0986 2.08719L32.2864 8.29215L33.109 5.43843C33.4829 4.13613 33.6738 2.7881 33.6758 1.43301V0.0332192C31.4128 0.0298575 29.1796 0.553604 27.1539 1.56244Z" fill="#F7A116"/>
<path d="M10.5799 28.9535C9.33274 28.7995 8.22373 28.0859 7.56686 27.0145C6.91033 25.9431 6.77754 24.6311 7.20616 23.4498C7.61325 22.4231 7.53224 21.2671 6.9853 20.3076L6.8552 20.0908C3.81323 20.4801 1.51386 23.036 1.4473 26.1018C1.3804 29.1676 3.56649 31.8213 6.58828 32.3427C9.61042 32.8641 12.5593 31.0966 13.5237 28.1857C12.6769 28.809 11.623 29.0836 10.5799 28.9535Z" fill="#EE9200"/>
<path d="M34.3154 36.5226L35.5168 30.8538C35.9007 29.0422 35.4472 27.1543 34.2824 25.7149C33.1176 24.2754 31.3659 23.4377 29.5142 23.435L12.991 23.4121C11.1391 23.4098 9.38496 24.2424 8.21611 25.6789C7.0476 27.1153 6.58873 29.0019 6.96759 30.8145L8.15358 36.489H7.46511C5.56409 36.4863 4.02076 38.0253 4.01807 39.9266L12.2797 39.9374L30.1799 39.9629L38.4415 39.974C38.4442 38.073 36.9052 36.5297 35.0038 36.527L34.3154 36.5226Z" fill="#F7A116"/>
<path d="M38.6286 39.9996C38.6286 38.0982 37.0876 36.5572 35.1863 36.5572H34.4978L35.6915 30.8868C36.1813 28.5669 35.2898 26.1727 33.4019 24.7383C30.0725 33.4907 21.6132 37.8474 14.5393 39.9996H38.6286Z" fill="#F58F00"/>
<path d="M33.8093 15.2148H36.5631C36.5631 17.1159 35.0222 18.6572 33.1208 18.6572H30.3669C30.3669 16.7558 31.9083 15.2148 33.8093 15.2148Z" fill="#348FD9"/>
<path d="M30.3669 18.6572H33.1208C35.0222 18.6572 36.5631 20.1982 36.5631 22.0996H33.8093C31.9083 22.0996 30.3669 20.5582 30.3669 18.6572Z" fill="#3086CD"/>
<path d="M30.367 14.5264H12.4668V17.2883L13.8437 39.9997H19.3515V29.6727H23.4823V39.9997H28.99L30.367 17.2883V14.5264Z" fill="#FFB531"/>
<path d="M30.367 15.2148H12.4668V17.2883C12.6292 20.0943 14.1234 22.6532 16.4877 24.173C17.4054 24.761 18.3463 25.3119 19.3101 25.8256C19.3522 25.8475 19.3928 25.8723 19.4348 25.8942L21.3762 26.9188L23.4416 25.7621L25.6613 24.523L25.9366 24.3673C28.5103 22.8993 30.1747 20.2368 30.367 17.2803V15.2148Z" fill="#348FD9"/>
<path d="M30.367 15.2148H12.4668V17.2883C12.6292 20.0943 14.1234 22.6532 16.4877 24.173C17.4054 24.761 18.3463 25.3119 19.3101 25.8256C19.3522 25.8475 19.3928 25.8723 19.4348 25.8942L21.3762 26.9188L23.4416 25.7621L25.6613 24.523L25.9366 24.3673C28.5103 22.8993 30.1747 20.2368 30.367 17.2803V15.2148Z" fill="#3086CD"/>
<path d="M24.5839 20.7234H18.2498C17.6242 20.7234 17.0171 20.5106 16.5287 20.1197L11.4341 16.0416C10.7816 15.5192 10.4017 14.7286 10.4014 13.8925V8.78312C10.4014 8.05263 10.6918 7.35206 11.2082 6.83571L15.1023 2.94156C15.6187 2.42488 16.3196 2.13477 17.0501 2.13477H25.784C26.5145 2.13477 27.2151 2.42488 27.7314 2.94156L31.6256 6.83571C32.1422 7.35206 32.4324 8.05263 32.4324 8.78312V13.8925C32.4324 14.7286 32.0525 15.5192 31.3997 16.0416L26.3051 20.119C25.8166 20.5099 25.2095 20.7234 24.5839 20.7234Z" fill="#FFB531"/>
<path d="M27.2688 9.70703C25.1127 9.74569 23.2063 11.1172 22.4842 13.1494H20.3499C19.6278 11.1172 17.7214 9.74569 15.5649 9.70703C13.4453 9.74266 11.5621 11.0692 10.8145 13.0529C10.3687 14.1794 10.7113 15.4649 11.6586 16.2199L16.5287 20.1188C17.0171 20.5097 17.6242 20.7225 18.2498 20.7225H24.5839C25.2095 20.7225 25.8166 20.5097 26.305 20.1188L31.1781 16.2206C32.1254 15.4656 32.468 14.1801 32.0222 13.0536C31.2742 11.0685 29.3897 9.74166 27.2688 9.70703Z" fill="#FFD896"/>
<path d="M20.7285 10.3955H22.1054C22.8658 10.3955 23.4824 11.012 23.4824 11.7725C23.4824 12.5329 22.8658 13.1494 22.1054 13.1494H20.7285C19.9681 13.1494 19.3516 12.5329 19.3516 11.7725C19.3516 11.012 19.9681 10.3955 20.7285 10.3955Z" fill="#2E3E51"/>
<path d="M23.4824 15.9033C23.4824 17.0439 22.5576 17.9687 21.417 17.9687C20.2764 17.9687 19.3516 17.0439 19.3516 15.9033L21.417 15.2148L23.4824 15.9033Z" fill="#E94F4F"/>
<path d="M17.9746 8.33006C17.9746 9.09047 17.3581 9.707 16.5976 9.707C15.8372 9.707 15.2207 9.09047 15.2207 8.33006C15.2207 7.56965 15.8372 6.95312 16.5976 6.95312C17.3581 6.95312 17.9746 7.56965 17.9746 8.33006Z" fill="#2E3E51"/>
<path d="M27.6132 8.33006C27.6132 9.09047 26.9967 9.707 26.2363 9.707C25.4759 9.707 24.8594 9.09047 24.8594 8.33006C24.8594 7.56965 25.4759 6.95312 26.2363 6.95312C26.9967 6.95312 27.6132 7.56965 27.6132 8.33006Z" fill="#2E3E51"/>
<path d="M15.9092 4.2002H17.2861V5.57713H15.9092V4.2002Z" fill="#FFD896"/>
<path d="M25.5479 4.2002H26.9248V5.57713H25.5479V4.2002Z" fill="#FFD896"/>
<path d="M25.6634 13.4557L24.7988 14.7543C24.6432 14.9856 24.3642 15.1012 24.0905 15.0474L22.1055 14.6501V13.1494H20.7285V14.6501L18.7438 15.0474C18.4702 15.1022 18.1908 14.9862 18.0358 14.7543L17.1706 13.4557L16.0249 14.2198L16.8905 15.5177C17.3538 16.2152 18.1932 16.5628 19.0144 16.3974L21.417 15.9157L23.8199 16.3974C24.6408 16.5649 25.4816 16.2166 25.9438 15.5177L26.8091 14.2198L25.6634 13.4557Z" fill="#2E3E51"/>
</g>
<defs>
<clipPath id="clip0_533_1021">
<rect width="40" height="40" fill="white"/>
</clipPath>
</defs>
</svg>
