<svg width="30" height="27" viewBox="0 0 30 27" fill="none" xmlns="http://www.w3.org/2000/svg">
<path d="M0.518703 12.995L7.85495 16.6512C8.1387 16.7912 8.4737 16.7812 8.74495 16.6225L15.275 12.8262L11.3225 16.3287C11.1212 16.5075 11.0062 16.7625 11.0062 17.0312V25.5625C11.0062 26.4625 12.155 26.8412 12.6937 26.1262L15.865 21.91L23.7075 26.3762C24.2575 26.6925 24.9625 26.375 25.09 25.7462L29.9812 1.37124C30.1275 0.638743 29.3987 0.0412434 28.7212 0.313743L0.596203 11.2825C-0.158797 11.5775 -0.207547 12.6337 0.518703 12.995ZM27.8062 2.68374L23.5075 24.105L16.0762 19.8725C15.6712 19.6412 15.15 19.7437 14.8625 20.1237L12.8812 22.7575V17.4525L23.57 7.98249C24.4162 7.23374 23.4437 5.90249 22.4775 6.46999L8.23995 14.7475L3.24995 12.2612L27.8062 2.68374Z" fill="#1C6E8C"/>
</svg>
