<svg width="30" height="30" viewBox="0 0 30 30" fill="none" xmlns="http://www.w3.org/2000/svg">
<g clip-path="url(#clip0_533_916)">
<path d="M26.7035 17.9706L26.6872 17.9554C26.4311 17.7185 25.6465 16.9535 25.3819 16.6191C25.0713 16.202 25.1429 15.9286 25.3757 15.519C25.6698 15.0014 26.2592 14.2075 26.8829 13.3668C28.8806 10.6749 30.1703 8.81136 29.9048 7.48767L29.7618 6.78065L22.3842 6.78386C22.3584 6.85357 21.9734 8.54809 20.3488 11.4335C19.1707 13.5257 18.398 14.183 18.1259 14.299L18.0838 14.2861C17.9952 14.1765 17.8405 13.8807 17.7768 13.1182C17.7105 12.3194 17.7693 11.3523 17.8263 10.4171C17.8929 9.32047 17.9503 8.37334 17.8128 7.69567L17.5887 6.59168C17.3179 6.54833 16.3266 6.16512 13.5647 6.136C11.1736 6.11146 10.4711 6.45752 10.1262 6.76253L8.98523 7.77135L10.4274 8.25753C10.9763 8.4426 11.1585 8.6561 11.3079 9.71446C11.4054 10.4043 11.4565 11.5635 11.3512 12.5985C11.1999 14.0825 10.8371 14.3586 10.8183 14.3733C10.7559 14.352 10.226 14.1197 9.30612 12.171C8.668 10.8196 8.10861 9.22094 7.69983 8.05366C7.23199 6.71689 7.31622 7.00149 7.07887 6.36992L-0.0585938 6.36969L0.403291 7.56679C2.32888 12.5623 4.09562 16.4634 6.45997 19.2654C9.07221 22.3611 12.3187 23.982 16.6917 23.982H17.5706V23.1014C17.5706 22.2781 17.6386 21.6852 17.7844 21.2358C17.8734 20.9619 17.9917 20.7356 18.116 20.4982C18.3005 20.1487 18.4809 19.999 18.5793 19.9767C18.6686 19.9563 18.8256 20.0219 18.9995 20.1519C19.4989 20.5251 19.8954 21.0154 20.3151 21.5346C20.9208 22.2838 21.547 23.0582 22.5406 23.5653C23.0835 23.8423 24.0786 23.9822 24.6264 23.9822C24.7712 23.9822 29.9351 23.982 29.9415 23.982L29.9037 23.0651C29.8474 21.6942 28.7705 19.9799 26.7035 17.9706ZM24.6605 22.2207H24.6463C24.2686 22.2269 23.5479 22.1029 23.3382 21.996C22.6777 21.6589 22.216 21.0876 21.6811 20.4262C21.2117 19.8453 20.7262 19.2447 20.0503 18.74C19.5037 18.3315 19.0073 18.212 18.6132 18.212C18.4557 18.212 18.3142 18.2311 18.1929 18.2586C17.7354 18.3618 17.081 18.6916 16.5608 19.6775C16.4141 19.9579 16.2477 20.2756 16.1129 20.6911C15.9716 21.1259 15.8837 21.6091 15.8419 22.1969C12.5464 22.0093 9.97492 20.703 7.80237 18.1283C5.78248 15.7344 4.19335 12.3859 2.51038 8.13025C2.63215 8.13025 5.68338 8.13071 5.86351 8.13071C5.91867 8.28597 5.97818 8.45613 6.04135 8.63638C6.48195 9.89563 7.08551 11.62 7.79665 13.0904C8.81494 15.1961 9.74489 16.1352 10.8117 16.1352C11.3443 16.1352 11.822 15.9091 12.193 15.481C12.722 14.8707 13.0291 13.8635 13.1321 12.4015C13.2134 11.2487 13.1378 10.1004 13.0486 9.4677C12.9749 8.94712 12.8698 8.40063 12.6135 7.91101C13.7059 7.86171 15.1687 7.93968 16.0955 8.07292C16.1797 8.5325 16.1248 9.43583 16.0717 10.3098C15.9433 12.421 15.8107 14.5996 16.9261 15.619C17.1222 15.7983 17.3303 15.8944 17.3362 15.8983L17.9039 16.0729C18.1229 16.0052 19.3916 16.6501 21.7939 12.4494C22.5637 11.1035 23.2803 9.55255 23.6662 8.5396C24.5611 8.53777 27.6101 8.54121 27.9683 8.54167C27.4608 9.66057 26.2583 11.2565 25.4723 12.3157C24.787 13.239 24.1954 14.0364 23.8482 14.6473C23.2032 15.7823 23.3117 16.7939 23.9834 17.6862L23.994 17.7C24.3689 18.1781 25.2947 19.0633 25.4867 19.2417C26.8779 20.595 27.5483 21.5671 27.8673 22.2205H24.6605V22.2207Z" fill="#9DE6DD"/>
</g>
<defs>
<clipPath id="clip0_533_916">
<rect width="30" height="30" fill="white"/>
</clipPath>
</defs>
</svg>
