<svg width="30" height="18" viewBox="0 0 30 18" fill="none" xmlns="http://www.w3.org/2000/svg">
<path d="M26.7035 11.9706L26.6872 11.9554C26.4311 11.7185 25.6465 10.9535 25.3819 10.6191C25.0713 10.202 25.1429 9.92861 25.3757 9.51903C25.6698 9.00143 26.2592 8.20749 26.8829 7.36677C28.8806 4.67489 30.1703 2.81136 29.9048 1.48767L29.7618 0.780645L22.3842 0.783856C22.3584 0.853572 21.9734 2.54809 20.3488 5.43352C19.1707 7.52569 18.398 8.18295 18.1259 8.29899L18.0838 8.28615C17.9952 8.17653 17.8405 7.88069 17.7768 7.11817C17.7105 6.31942 17.7693 5.35233 17.8263 4.41713C17.8929 3.32047 17.9503 2.37334 17.8128 1.69567L17.5887 0.591678C17.3179 0.548334 16.3266 0.165124 13.5647 0.136C11.1736 0.111461 10.4711 0.45752 10.1262 0.762528L8.98523 1.77135L10.4274 2.25753C10.9763 2.4426 11.1585 2.6561 11.3079 3.71446C11.4054 4.40428 11.4565 5.56355 11.3512 6.59851C11.1999 8.08251 10.8371 8.35862 10.8183 8.37329C10.7559 8.35197 10.226 8.11966 9.30612 6.17104C8.668 4.8196 8.10861 3.22094 7.69983 2.05366C7.23199 0.716892 7.31622 1.00149 7.07887 0.369916L-0.0585938 0.369687L0.403291 1.56679C2.32888 6.56228 4.09562 10.4634 6.45997 13.2654C9.07221 16.3611 12.3187 17.982 16.6917 17.982H17.5706V17.1014C17.5706 16.2781 17.6386 15.6852 17.7844 15.2358C17.8734 14.9619 17.9917 14.7356 18.116 14.4982C18.3005 14.1487 18.4809 13.999 18.5793 13.9767C18.6686 13.9563 18.8256 14.0219 18.9995 14.1519C19.4989 14.5251 19.8954 15.0154 20.3151 15.5346C20.9208 16.2838 21.547 17.0582 22.5406 17.5653C23.0835 17.8423 24.0786 17.9822 24.6264 17.9822C24.7712 17.9822 29.9351 17.982 29.9415 17.982L29.9037 17.0651C29.8474 15.6942 28.7705 13.9799 26.7035 11.9706ZM24.6605 16.2207H24.6463C24.2686 16.2269 23.5479 16.1029 23.3382 15.996C22.6777 15.6589 22.216 15.0876 21.6811 14.4262C21.2117 13.8453 20.7262 13.2447 20.0503 12.74C19.5037 12.3315 19.0073 12.212 18.6132 12.212C18.4557 12.212 18.3142 12.2311 18.1929 12.2586C17.7354 12.3618 17.081 12.6916 16.5608 13.6775C16.4141 13.9579 16.2477 14.2756 16.1129 14.6911C15.9716 15.1259 15.8837 15.6091 15.8419 16.1969C12.5464 16.0093 9.97492 14.703 7.80237 12.1283C5.78248 9.73437 4.19335 6.38592 2.51038 2.13025C2.63215 2.13025 5.68338 2.13071 5.86351 2.13071C5.91867 2.28597 5.97818 2.45613 6.04135 2.63638C6.48195 3.89563 7.08551 5.61996 7.79665 7.09042C8.81494 9.19613 9.74489 10.1352 10.8117 10.1352C11.3443 10.1352 11.822 9.90912 12.193 9.48096C12.722 8.87071 13.0291 7.8635 13.1321 6.40152C13.2134 5.24868 13.1378 4.10042 13.0486 3.4677C12.9749 2.94712 12.8698 2.40063 12.6135 1.91101C13.7059 1.86171 15.1687 1.93968 16.0955 2.07292C16.1797 2.5325 16.1248 3.43583 16.0717 4.3098C15.9433 6.42101 15.8107 8.59964 16.9261 9.61901C17.1222 9.79835 17.3303 9.89444 17.3362 9.89834L17.9039 10.0729C18.1229 10.0052 19.3916 10.6501 21.7939 6.44945C22.5637 5.10351 23.2803 3.55255 23.6662 2.5396C24.5611 2.53777 27.6101 2.54121 27.9683 2.54167C27.4608 3.66057 26.2583 5.25647 25.4723 6.31575C24.787 7.23903 24.1954 8.03641 23.8482 8.64734C23.2032 9.7823 23.3117 10.7939 23.9834 11.6862L23.994 11.7C24.3689 12.1781 25.2947 13.0633 25.4867 13.2417C26.8779 14.595 27.5483 15.5671 27.8673 16.2205H24.6605V16.2207Z" fill="#1C6E8C"/>
</svg>
